<svg width="1200" height="760" viewBox="0 0 1200 760" fill="none" xmlns="http://www.w3.org/2000/svg">
  <rect width="1200" height="760" rx="22" fill="#111111"/>
  <rect x="28" y="28" width="248" height="704" rx="16" fill="#202020" stroke="#303030"/>
  <rect x="302" y="28" width="870" height="704" rx="16" fill="#171717" stroke="#303030"/>
  <g fill="#D8D8D8" font-family="Arial, Helvetica, sans-serif">
    <text x="56" y="78" font-size="28" font-weight="700">Mesuro</text>
    <text x="56" y="132" font-size="15" fill="#6E6E6E">SCALE</text>
    <text x="56" y="214" font-size="15" fill="#6E6E6E">MEASURE</text>
    <text x="56" y="530" font-size="15" fill="#6E6E6E">RESULTS</text>
  </g>
  <rect x="56" y="148" width="192" height="42" rx="10" fill="#1A1A1A" stroke="#3A3A3A"/>
  <text x="74" y="174" fill="#1D9E75" font-family="Arial, Helvetica, sans-serif" font-size="18">1 px = 0.42 mm</text>
  <rect x="56" y="232" width="92" height="38" rx="9" fill="#261F15" stroke="#6B4E1B"/>
  <rect x="156" y="232" width="92" height="38" rx="9" fill="#151F1B" stroke="#225545"/>
  <text x="79" y="256" fill="#EF9F27" font-family="Arial, Helvetica, sans-serif" font-size="16">Distance</text>
  <text x="180" y="256" fill="#5DCAA5" font-family="Arial, Helvetica, sans-serif" font-size="16">Diameter</text>
  <rect x="56" y="548" width="192" height="42" rx="10" fill="#1A1A1A" stroke="#303030"/>
  <text x="74" y="574" fill="#EF9F27" font-family="Arial, Helvetica, sans-serif" font-size="18">42.00 mm</text>
  <rect x="56" y="598" width="192" height="42" rx="10" fill="#1A1A1A" stroke="#303030"/>
  <text x="74" y="624" fill="#9F77DD" font-family="Arial, Helvetica, sans-serif" font-size="18">824.6 mm?</text>
  <rect x="334" y="66" width="806" height="626" rx="12" fill="#F4F0E8"/>
  <g stroke="#D0C8BA" stroke-width="2">
    <path d="M388 132H1084"/>
    <path d="M388 220H1084"/>
    <path d="M388 308H1084"/>
    <path d="M388 396H1084"/>
    <path d="M388 484H1084"/>
    <path d="M388 572H1084"/>
    <path d="M452 104V640"/>
    <path d="M590 104V640"/>
    <path d="M728 104V640"/>
    <path d="M866 104V640"/>
    <path d="M1004 104V640"/>
  </g>
  <g stroke="#354052" stroke-width="8" stroke-linecap="round" stroke-linejoin="round">
    <path d="M452 572V168H852V572H452Z"/>
    <path d="M594 168V334H852"/>
    <path d="M594 334H452"/>
    <path d="M728 334V572"/>
    <path d="M852 286H1026V572H852"/>
  </g>
  <g stroke="#1D9E75" stroke-width="8" stroke-linecap="round">
    <path d="M390 626H550"/>
    <path d="M390 614V638"/>
    <path d="M550 614V638"/>
  </g>
  <text x="392" y="606" fill="#1D9E75" font-family="Arial, Helvetica, sans-serif" font-size="20">100 mm calibration</text>
  <g stroke="#EF9F27" stroke-width="8" stroke-linecap="round">
    <path d="M452 246H594"/>
  </g>
  <g fill="#EF9F27">
    <circle cx="452" cy="246" r="9"/>
    <circle cx="594" cy="246" r="9"/>
  </g>
  <rect x="486" y="204" width="88" height="30" rx="15" fill="#1A1A1A"/>
  <text x="505" y="225" fill="#EF9F27" font-family="Arial, Helvetica, sans-serif" font-size="17">42.00 mm</text>
  <path d="M730 406C782 378 836 388 856 438C874 482 846 534 788 536C734 538 704 494 714 446C718 430 724 416 730 406Z" fill="#9F77DD22" stroke="#9F77DD" stroke-width="7"/>
  <rect x="754" y="456" width="108" height="30" rx="15" fill="#1A1A1A"/>
  <text x="772" y="477" fill="#9F77DD" font-family="Arial, Helvetica, sans-serif" font-size="17">824.6 mm?</text>
</svg>
